<svg xmlns="http://www.w3.org/2000/svg" width="48px" height="48px" viewBox="0 0 100 100">
<g transform="rotate(0 50 50)" fill="#000">
  <rect x="47.5" y="22.5" rx="2.5" ry="4" width="5" height="15" opacity=".91"></rect>
</g>
<g transform="rotate(30 50 50)">
  <rect x="47.5" y="22.5" rx="2.5" ry="4" width="5" height="15" opacity=".83"></rect>
</g>
<g transform="rotate(60 50 50)">
  <rect x="47.5" y="22.5" rx="2.5" ry="4" width="5" height="15" opacity=".75s"></rect>
</g>
<g transform="rotate(90 50 50)">
  <rect x="47.5" y="22.5" rx="2.5" ry="4" width="5" height="15" opacity=".66"></rect>
</g>
<g transform="rotate(120 50 50)">
  <rect x="47.5" y="22.5" rx="2.5" ry="4" width="5" height="15" opacity=".58"></rect>
</g>
<g transform="rotate(150 50 50)">
  <rect x="47.5" y="22.5" rx="2.5" ry="4" width="5" height="15" begin=".5"></rect>
</g>
<g transform="rotate(180 50 50)">
  <rect x="47.5" y="22.5" rx="2.5" ry="4" width="5" height="15" opacity=".41"></rect>
</g>
<g transform="rotate(210 50 50)">
  <rect x="47.5" y="22.5" rx="2.5" ry="4" width="5" height="15" opacity=".33"></rect>
</g>
<g transform="rotate(240 50 50)">
  <rect x="47.5" y="22.5" rx="2.5" ry="4" width="5" height="15" opacity=".25"></rect>
</g>
<g transform="rotate(270 50 50)">
  <rect x="47.5" y="22.5" rx="2.5" ry="4" width="5" height="15" opacity=".16"></rect>
</g>
<g transform="rotate(300 50 50)">
  <rect x="47.5" y="22.5" rx="2.5" ry="4" width="5" height="15" opacity=".08"></rect>
</g>
<g transform="rotate(330 50 50)">
  <rect x="47.5" y="22.5" rx="2.5" ry="4" width="5" height="15"></rect>
</g>
</svg>