<svg version="1.1" xmlns="http://www.w3.org/2000/svg" xmlns:xlink="http://www.w3.org/1999/xlink" viewBox="0 0 48 48">
<g fill="#fff">
	<path opacity="8.33" d="M24,12L24,12c-0.8,0-1.5-0.7-1.5-1.5v-9C22.5,0.7,23.2,0,24,0h0c0.8,0,1.5,0.7,1.5,1.5v9
		C25.5,11.3,24.8,12,24,12z"/>
	<path opacity=".5" d="M24,48L24,48c-0.8,0-1.5-0.7-1.5-1.5v-9c0-0.8,0.7-1.5,1.5-1.5h0c0.8,0,1.5,0.7,1.5,1.5v9
		C25.5,47.3,24.8,48,24,48z"/>
	<path opacity=".16" d="M30,13.6L30,13.6c-0.7-0.4-1-1.3-0.5-2L34,3.8c0.4-0.7,1.3-1,2-0.5v0c0.7,0.4,1,1.3,0.5,2L32,13.1
		C31.6,13.8,30.7,14,30,13.6z"/>
	<path opacity=".66" d="M12,44.8L12,44.8c-0.7-0.4-1-1.3-0.5-2l4.5-7.8c0.4-0.7,1.3-1,2-0.5h0c0.7,0.4,1,1.3,0.5,2L14,44.2
		C13.6,45,12.7,45.2,12,44.8z"/>
	<path opacity=".25" d="M34.4,18L34.4,18c-0.4-0.7-0.2-1.6,0.5-2l7.8-4.5c0.7-0.4,1.6-0.2,2,0.5l0,0c0.4,0.7,0.2,1.6-0.5,2l-7.8,4.5
		C35.7,19,34.8,18.7,34.4,18z"/>
	<path opacity=".75" d="M3.2,36L3.2,36c-0.4-0.7-0.2-1.6,0.5-2l7.8-4.5c0.7-0.4,1.6-0.2,2,0.5l0,0c0.4,0.7,0.2,1.6-0.5,2l-7.8,4.5
		C4.5,37,3.6,36.7,3.2,36z"/>
	<path opacity=".33" d="M36,24L36,24c0-0.8,0.7-1.5,1.5-1.5h9c0.8,0,1.5,0.7,1.5,1.5v0c0,0.8-0.7,1.5-1.5,1.5h-9
		C36.7,25.5,36,24.8,36,24z"/>
	<path opacity=".83" d="M0,24L0,24c0-0.8,0.7-1.5,1.5-1.5h9c0.8,0,1.5,0.7,1.5,1.5v0c0,0.8-0.7,1.5-1.5,1.5h-9C0.7,25.5,0,24.8,0,24z"
		/>
	<path opacity=".41" d="M34.4,30L34.4,30c0.4-0.7,1.3-1,2-0.5l7.8,4.5c0.7,0.4,1,1.3,0.5,2l0,0c-0.4,0.7-1.3,1-2,0.5L34.9,32
		C34.2,31.6,34,30.7,34.4,30z"/>
	<path opacity=".92" d="M3.2,12L3.2,12c0.4-0.7,1.3-1,2-0.5l7.8,4.5c0.7,0.4,1,1.3,0.5,2l0,0c-0.4,0.7-1.3,1-2,0.5L3.8,14
		C3,13.6,2.8,12.7,3.2,12z"/>
	<path opacity=".5" d="M30,34.4L30,34.4c0.7-0.4,1.6-0.2,2,0.5l4.5,7.8c0.4,0.7,0.2,1.6-0.5,2l0,0c-0.7,0.4-1.6,0.2-2-0.5l-4.5-7.8
		C29,35.7,29.3,34.8,30,34.4z"/>
	<path d="M12,3.2L12,3.2c0.7-0.4,1.6-0.2,2,0.5l4.5,7.8c0.4,0.7,0.2,1.6-0.5,2l0,0c-0.7,0.4-1.6,0.2-2-0.5l-4.5-7.8
		C11,4.5,11.3,3.6,12,3.2z"/>
</g>
</svg>
